<svg width="672.92744140625px" height="101.621240234375px" xmlns="http://www.w3.org/2000/svg" viewBox="-86.46372070312498 24.189379882812503 672.92744140625 101.621240234375" style="background: rgba(0, 0, 0, 0);" preserveAspectRatio="xMidYMid"><defs><filter id="editing-vr"><feFlood flood-color="#f00" flood-opacity="0.7" result="c1"></feFlood><feFlood flood-color="#00f" flood-opacity="0.7" result="c3"></feFlood><feComposite operator="in" in="c1" in2="SourceAlpha" result="text-c1"></feComposite><feComposite operator="in" in="c3" in2="SourceAlpha" result="text-c3"></feComposite><feOffset in="text-c1" dx="5" dy="-1" result="text1"></feOffset><feOffset in="text-c3" dx="-5" dy="1" result="text3"></feOffset><feBlend in="SourceGraphic" in2="text1" mode="multiply" result="text4"></feBlend><feBlend in="text4" in2="text3" mode="multiply"></feBlend></filter></defs><g filter="url(#editing-vr)"><g transform="translate(9.264999389648438, 104.31968688964844)"><path d="M12.16 0L5.75 0L5.75-44.81L30.28-44.81L30.28-44.81Q41.16-44.81 41.16-33.91L41.16-33.91L41.16-27.53L41.16-27.53Q41.16-16.63 30.28-16.63L30.28-16.63L12.16-16.63L12.16 0ZM12.16-38.41L12.16-23.03L29.94-23.03L29.94-23.03Q32.50-23.03 33.63-24.16L33.63-24.16L33.63-24.16Q34.75-25.28 34.75-27.84L34.75-27.84L34.75-33.59L34.75-33.59Q34.75-36.16 33.63-37.28L33.63-37.28L33.63-37.28Q32.50-38.41 29.94-38.41L29.94-38.41L12.16-38.41ZM77.63-27.13L77.63-13.50L55.59-13.50L55.59-6.16L77.63-6.16L77.63 0L55.59 0L55.59 0Q54.34 0 53.22-0.48L53.22-0.48L53.22-0.48Q52.09-0.97 51.27-1.80L51.27-1.80L51.27-1.80Q50.44-2.63 49.95-3.75L49.95-3.75L49.95-3.75Q49.47-4.88 49.47-6.16L49.47-6.16L49.47-27.13L49.47-27.13Q49.47-28.41 49.95-29.53L49.95-29.53L49.95-29.53Q50.44-30.66 51.27-31.48L51.27-31.48L51.27-31.48Q52.09-32.31 53.22-32.80L53.22-32.80L53.22-32.80Q54.34-33.28 55.59-33.28L55.59-33.28L71.47-33.28L71.47-33.28Q72.75-33.28 73.88-32.80L73.88-32.80L73.88-32.80Q75-32.31 75.83-31.48L75.83-31.48L75.83-31.48Q76.66-30.66 77.14-29.53L77.14-29.53L77.14-29.53Q77.63-28.41 77.63-27.13L77.63-27.13ZM71.47-27.13L55.59-27.13L55.59-19.66L71.47-19.66L71.47-27.13ZM106.69-27.13L94-27.13L94 0L87.88 0L87.88-33.28L94-33.28L94-27.41L94-27.41Q94.06-28.63 94.56-29.70L94.56-29.70L94.56-29.70Q95.06-30.78 95.89-31.58L95.89-31.58L95.89-31.58Q96.72-32.38 97.81-32.83L97.81-32.83L97.81-32.83Q98.91-33.28 100.16-33.28L100.16-33.28L106.69-33.28L106.69-33.28Q107.97-33.28 109.08-32.80L109.08-32.80L109.08-32.80Q110.19-32.31 111.03-31.48L111.03-31.48L111.03-31.48Q111.88-30.66 112.36-29.53L112.36-29.53L112.36-29.53Q112.84-28.41 112.84-27.13L112.84-27.13L112.84-21.50L106.69-21.50L106.69-27.13ZM148.66-27.13L148.66-13.50L126.63-13.50L126.63-6.16L148.66-6.16L148.66 0L126.63 0L126.63 0Q125.38 0 124.25-0.48L124.25-0.48L124.25-0.48Q123.13-0.97 122.30-1.80L122.30-1.80L122.30-1.80Q121.47-2.63 120.98-3.75L120.98-3.75L120.98-3.75Q120.50-4.88 120.50-6.16L120.50-6.16L120.50-27.13L120.50-27.13Q120.50-28.41 120.98-29.53L120.98-29.53L120.98-29.53Q121.47-30.66 122.30-31.48L122.30-31.48L122.30-31.48Q123.13-32.31 124.25-32.80L124.25-32.80L124.25-32.80Q125.38-33.28 126.63-33.28L126.63-33.28L142.50-33.28L142.50-33.28Q143.78-33.28 144.91-32.80L144.91-32.80L144.91-32.80Q146.03-32.31 146.86-31.48L146.86-31.48L146.86-31.48Q147.69-30.66 148.17-29.53L148.17-29.53L148.17-29.53Q148.66-28.41 148.66-27.13L148.66-27.13ZM142.50-27.13L126.63-27.13L126.63-19.66L142.50-19.66L142.50-27.13ZM158.25-27.13L158.25-33.28L185.78-33.28L185.78-31.63L168.06-6.16L185.78-6.16L185.78 0L157.63 0L157.63-1.66L175.34-27.13L158.25-27.13ZM194.75-6.16L194.75-14.53L194.75-14.53Q194.75-15.81 195.23-16.92L195.23-16.92L195.23-16.92Q195.72-18.03 196.55-18.88L196.55-18.88L196.55-18.88Q197.38-19.72 198.50-20.20L198.50-20.20L198.50-20.20Q199.63-20.69 200.88-20.69L200.88-20.69L216.75-20.69L216.75-27.13L196.66-27.13L196.66-33.28L216.75-33.28L216.75-33.28Q218.03-33.28 219.16-32.80L219.16-32.80L219.16-32.80Q220.28-32.31 221.11-31.48L221.11-31.48L221.11-31.48Q221.94-30.66 222.42-29.53L222.42-29.53L222.42-29.53Q222.91-28.41 222.91-27.13L222.91-27.13L222.91 0L216.75 0L216.75-5.63L216.75-5.63Q216.66-4.47 216.13-3.44L216.13-3.44L216.13-3.44Q215.59-2.41 214.77-1.64L214.77-1.64L214.77-1.64Q213.94-0.88 212.88-0.44L212.88-0.44L212.88-0.44Q211.81 0 210.63 0L210.63 0L200.88 0L200.88 0Q199.63 0 198.50-0.48L198.50-0.48L198.50-0.48Q197.38-0.97 196.55-1.80L196.55-1.80L196.55-1.80Q195.72-2.63 195.23-3.75L195.23-3.75L195.23-3.75Q194.75-4.88 194.75-6.16L194.75-6.16ZM200.88-14.53L200.88-6.16L216.75-6.16L216.75-14.53L200.88-14.53ZM251.69-6.16L272.44-6.16L272.44-13.88L257.84-13.88L257.84-13.88Q256.56-13.88 255.44-14.36L255.44-14.36L255.44-14.36Q254.31-14.84 253.48-15.67L253.48-15.67L253.48-15.67Q252.66-16.50 252.17-17.63L252.17-17.63L252.17-17.63Q251.69-18.75 251.69-20.03L251.69-20.03L251.69-27.13L251.69-27.13Q251.69-28.41 252.17-29.53L252.17-29.53L252.17-29.53Q252.66-30.66 253.48-31.48L253.48-31.48L253.48-31.48Q254.31-32.31 255.44-32.80L255.44-32.80L255.44-32.80Q256.56-33.28 257.84-33.28L257.84-33.28L277.31-33.28L277.31-27.13L257.84-27.13L257.84-20.03L272.44-20.03L272.44-20.03Q273.72-20.03 274.83-19.55L274.83-19.55L274.83-19.55Q275.94-19.06 276.78-18.23L276.78-18.23L276.78-18.23Q277.63-17.41 278.11-16.28L278.11-16.28L278.11-16.28Q278.59-15.16 278.59-13.88L278.59-13.88L278.59-6.16L278.59-6.16Q278.59-4.88 278.11-3.75L278.11-3.75L278.11-3.75Q277.63-2.63 276.78-1.80L276.78-1.80L276.78-1.80Q275.94-0.97 274.83-0.48L274.83-0.48L274.83-0.48Q273.72 0 272.44 0L272.44 0L251.69 0L251.69-6.16ZM310.19-27.13L294.31-27.13L294.31-6.16L310.19-6.16L310.19-11.78L316.34-11.78L316.34-6.16L316.34-6.16Q316.34-4.88 315.86-3.75L315.86-3.75L315.86-3.75Q315.38-2.63 314.55-1.80L314.55-1.80L314.55-1.80Q313.72-0.97 312.59-0.48L312.59-0.48L312.59-0.48Q311.47 0 310.19 0L310.19 0L294.31 0L294.31 0Q293.06 0 291.94-0.48L291.94-0.48L291.94-0.48Q290.81-0.97 289.98-1.80L289.98-1.80L289.98-1.80Q289.16-2.63 288.67-3.75L288.67-3.75L288.67-3.75Q288.19-4.88 288.19-6.16L288.19-6.16L288.19-27.13L288.19-27.13Q288.19-28.41 288.67-29.53L288.67-29.53L288.67-29.53Q289.16-30.66 289.98-31.48L289.98-31.48L289.98-31.48Q290.81-32.31 291.94-32.80L291.94-32.80L291.94-32.80Q293.06-33.28 294.31-33.28L294.31-33.28L310.19-33.28L310.19-33.28Q311.47-33.28 312.59-32.80L312.59-32.80L312.59-32.80Q313.72-32.31 314.55-31.48L314.55-31.48L314.55-31.48Q315.38-30.66 315.86-29.53L315.86-29.53L315.86-29.53Q316.34-28.41 316.34-27.13L316.34-27.13L316.34-21.50L310.19-21.50L310.19-27.13ZM345.41-27.13L332.72-27.13L332.72 0L326.59 0L326.59-33.28L332.72-33.28L332.72-27.41L332.72-27.41Q332.78-28.63 333.28-29.70L333.28-29.70L333.28-29.70Q333.78-30.78 334.61-31.58L334.61-31.58L334.61-31.58Q335.44-32.38 336.53-32.83L336.53-32.83L336.53-32.83Q337.63-33.28 338.88-33.28L338.88-33.28L345.41-33.28L345.41-33.28Q346.69-33.28 347.80-32.80L347.80-32.80L347.80-32.80Q348.91-32.31 349.75-31.48L349.75-31.48L349.75-31.48Q350.59-30.66 351.08-29.53L351.08-29.53L351.08-29.53Q351.56-28.41 351.56-27.13L351.56-27.13L351.56-21.50L345.41-21.50L345.41-27.13ZM359.53-33.28L365.69-33.28L365.69 0L359.53 0L359.53-33.28ZM359.22-39.69L359.22-46.09L366-46.09L366-39.69L359.22-39.69ZM405.69-27.13L405.69-6.16L405.69-6.16Q405.69-4.88 405.20-3.75L405.20-3.75L405.20-3.75Q404.72-2.63 403.89-1.80L403.89-1.80L403.89-1.80Q403.06-0.97 401.94-0.48L401.94-0.48L401.94-0.48Q400.81 0 399.53 0L399.53 0L382.38 0L382.38 13.44L376.25 13.44L376.25-33.28L382.38-33.28L382.38-27.66L382.38-27.66Q382.47-28.84 383-29.86L383-29.86L383-29.86Q383.53-30.88 384.34-31.64L384.34-31.64L384.34-31.64Q385.16-32.41 386.23-32.84L386.23-32.84L386.23-32.84Q387.31-33.28 388.53-33.28L388.53-33.28L399.53-33.28L399.53-33.28Q400.81-33.28 401.94-32.80L401.94-32.80L401.94-32.80Q403.06-32.31 403.89-31.48L403.89-31.48L403.89-31.48Q404.72-30.66 405.20-29.53L405.20-29.53L405.20-29.53Q405.69-28.41 405.69-27.13L405.69-27.13ZM382.38-6.16L399.53-6.16L399.53-27.13L382.38-27.13L382.38-6.16ZM414-27.13L414-33.28L422.13-33.28L422.13-43.53L428.28-43.53L428.28-33.28L439.22-33.28L439.22-27.13L428.28-27.13L428.28-6.16L439.22-6.16L439.22 0L428.28 0L428.28 0Q427.03 0 425.91-0.48L425.91-0.48L425.91-0.48Q424.78-0.97 423.94-1.80L423.94-1.80L423.94-1.80Q423.09-2.63 422.61-3.75L422.61-3.75L422.61-3.75Q422.13-4.88 422.13-6.16L422.13-6.16L422.13-27.13L414-27.13ZM448.81-6.16L469.56-6.16L469.56-13.88L454.97-13.88L454.97-13.88Q453.69-13.88 452.56-14.36L452.56-14.36L452.56-14.36Q451.44-14.84 450.61-15.67L450.61-15.67L450.61-15.67Q449.78-16.50 449.30-17.63L449.30-17.63L449.30-17.63Q448.81-18.75 448.81-20.03L448.81-20.03L448.81-27.13L448.81-27.13Q448.81-28.41 449.30-29.53L449.30-29.53L449.30-29.53Q449.78-30.66 450.61-31.48L450.61-31.48L450.61-31.48Q451.44-32.31 452.56-32.80L452.56-32.80L452.56-32.80Q453.69-33.28 454.97-33.28L454.97-33.28L474.44-33.28L474.44-27.13L454.97-27.13L454.97-20.03L469.56-20.03L469.56-20.03Q470.84-20.03 471.95-19.55L471.95-19.55L471.95-19.55Q473.06-19.06 473.91-18.23L473.91-18.23L473.91-18.23Q474.75-17.41 475.23-16.28L475.23-16.28L475.23-16.28Q475.72-15.16 475.72-13.88L475.72-13.88L475.72-6.16L475.72-6.16Q475.72-4.88 475.23-3.75L475.23-3.75L475.23-3.75Q474.75-2.63 473.91-1.80L473.91-1.80L473.91-1.80Q473.06-0.97 471.95-0.48L471.95-0.48L471.95-0.48Q470.84 0 469.56 0L469.56 0L448.81 0L448.81-6.16Z" fill="#444"></path></g></g><style>text {
  font-size: 64px;
  font-family: Arial Black;
  dominant-baseline: central;
  text-anchor: middle;
}</style></svg>